<?xml version="1.0" encoding="UTF-8" standalone="no"?>
<svg
   xmlns:dc="http://purl.org/dc/elements/1.1/"
   xmlns:cc="http://creativecommons.org/ns#"
   xmlns:rdf="http://www.w3.org/1999/02/22-rdf-syntax-ns#"
   xmlns:svg="http://www.w3.org/2000/svg"
   xmlns="http://www.w3.org/2000/svg"
   xmlns:sodipodi="http://sodipodi.sourceforge.net/DTD/sodipodi-0.dtd"
   xmlns:inkscape="http://www.inkscape.org/namespaces/inkscape"
   sodipodi:docname="JVS-Logo.svg"
   inkscape:version="1.0 (4035a4fb49, 2020-05-01)"
   id="svg8"
   version="1.1"
   viewBox="0 0 210 297"
   height="297mm"
   width="210mm">
  <defs
     id="defs2" />
  <sodipodi:namedview
     inkscape:window-maximized="1"
     inkscape:window-y="-8"
     inkscape:window-x="1912"
     inkscape:window-height="1017"
     inkscape:window-width="1920"
     objecttolerance="1"
     showgrid="false"
     inkscape:document-rotation="0"
     inkscape:current-layer="layer1"
     inkscape:document-units="mm"
     inkscape:cy="596.17453"
     inkscape:cx="236.22589"
     inkscape:zoom="1"
     inkscape:pageshadow="2"
     inkscape:pageopacity="0.0"
     borderopacity="1.0"
     bordercolor="#666666"
     pagecolor="#ffffff"
     id="base" />
  <metadata
     id="metadata5">
    <rdf:RDF>
      <cc:Work
         rdf:about="">
        <dc:format>image/svg+xml</dc:format>
        <dc:type
           rdf:resource="http://purl.org/dc/dcmitype/StillImage" />
        <dc:title></dc:title>
      </cc:Work>
    </rdf:RDF>
  </metadata>
  <g
     style="display:inline"
     id="layer1"
     inkscape:groupmode="layer"
     inkscape:label="trace">
    <path
       sodipodi:nodetypes="cssssssssssssscssssscc"
       id="path1091"
       d="m 103.10255,215.78304 c -1.29775,-1.60787 -2.74328,-3.10273 -7.827062,-5.02071 -13.067647,-4.93007 -15.974274,-7.95343 -18.308278,-23.16978 -0.557864,-3.63697 -2.610778,-7.60862 -2.796276,-8.88435 -0.807726,-5.55502 0.490497,-2.96419 3.318658,-4.43495 3.562529,-1.85266 6.614526,-4.4147 9.134633,-7.6682 2.540129,-3.27934 2.357612,-3.21354 5.847063,-2.10795 3.449215,1.09283 5.813456,-1.31966 3.77504,3.62271 -0.492009,1.19293 -0.953805,1.75907 -0.953805,1.847 0,0.42497 0.466165,-0.71241 2.95696,-1.77233 2.175167,-0.92561 3.326207,-0.51967 6.444337,-0.72401 3.12427,-0.20474 2.79332,-0.7783 3.26495,-1.34293 0.37145,-0.44468 2.73887,-0.42554 4.56359,-0.76904 1.60455,-0.30205 4.26309,-0.42487 5.59346,-0.87317 2.98371,-1.00543 3.40055,-1.01153 3.84264,-0.0563 1.31162,2.83418 7.27294,7.43696 11.35765,9.50834 3.3024,1.67465 3.79625,1.59035 2.97408,2.76272 -1.10932,1.58185 -2.3872,3.64615 -3.65699,11.53793 -2.38701,14.83531 -4.6303,17.70459 -17.72712,22.67383 -5.13817,1.94954 -7.51065,4.34963 -8.39383,5.69753 -0.8159,1.24522 -2.27129,0.93997 -3.37663,-0.42952 z"
       style="display:inline;fill:#c70d14;stroke-width:0.388981" />
    <path
       transform="scale(0.26458333)"
       sodipodi:nodetypes="sssssscssssssssssssssscssssssssssssssssssssss"
       d="m 405.85742,278.98242 c -14.03107,-0.44883 -28.03615,14.22063 -29.3789,34.5957 -0.79185,12.0154 -1.40493,14.61673 -3.76954,15.97657 -1.55356,0.89342 -6.33937,4.02024 -10.63476,6.94922 -7.80978,5.32541 -7.81011,5.3256 -14.69922,1.83789 -11.65082,-5.8984 -20.36081,-4.00898 -30.58008,6.63281 -4.66216,4.85492 -6.84194,6.0521 -11.02539,6.05664 -14.45761,0.0152 -24.80163,16.82061 -19.28515,31.33008 0.94993,2.49849 0.79024,4.43055 -0.5254,6.34375 -7.1303,10.36891 -5.90549,19.85653 3.83399,29.69336 10.68033,10.78715 20.10768,14.16576 49.7207,17.81054 18.28139,2.25003 44.99042,19.12003 46.54492,26.77149 5.18993,25.54553 23.04023,53.75937 22.36826,-8.81931 -0.26803,-24.96102 10.81919,-27.82126 41.73917,-7.04202 20.28563,13.63264 30.3065,18.90423 42.24414,22.22266 9.39643,2.61207 30.1411,2.00874 41.90039,-1.21875 29.54094,-8.10792 42.5684,-28.04862 36.6875,-56.15625 -5.96841,-28.52606 -43.64124,-35.52787 -50.67188,-9.41797 -1.1283,4.19013 -2.34797,5.81445 -4.36719,5.81445 -10.37023,0 -14.35252,13.76357 -8.04687,27.81445 12.57158,28.01318 -12.42661,22.26221 -63.28125,-14.55859 -23.50802,-17.0208 -54.92188,-19.72624 -65.42188,7.48438 -1.11504,2.88961 -2.78618,0.93119 -4.26757,-3.31836 -18.38611,-52.74242 54.46768,-58.83628 89.78125,-7.50977 4.53562,6.59229 4.53612,6.5919 12.45117,5.93555 27.04036,-2.2424 38.43505,-44.26307 17.08594,-63.00782 -4.58045,-4.02169 -5.33447,-5.60538 -5.54688,-11.64257 -1.02512,-29.13485 -41.54562,-31.45472 -55.33398,-3.16797 -3.116,6.39248 -3.1174,6.39328 -10.63477,5.46094 -35.91118,-4.45393 -56.43812,13.93711 -58.15234,52.0996 -0.8255,18.37705 -0.82671,18.37609 -3.4043,13.65626 -21.88742,-40.07793 13.97563,-82.90099 61.53125,-73.47461 6.02067,1.19341 6.02057,1.19266 10.29102,-7.35157 5.83725,-11.67905 12.79415,-16.37038 26.125,-17.61523 10.09084,-0.9423 10.09026,-0.94199 9.17187,-7.64258 -3.0782,-22.45784 -22.54424,-35.33098 -41.46875,-27.42383 -4.8604,2.03081 -5.47922,1.96624 -9.46484,-0.98047 -3.65547,-2.7026 -7.58693,-4.013 -11.51563,-4.13867 z m -58.89062,70.89649 c 1.05749,0.13808 0.63629,2.96342 -1.12305,8.61523 -4.94045,15.87109 -3.05175,35.60027 5.23047,54.64648 1.67008,3.8408 2.40481,6.98438 1.63281,6.98438 -2.4188,0 -11.54132,-13.60318 -14.78906,-22.05273 -6.57067,-17.09473 -5.14234,-33.36264 3.83594,-43.70313 2.67383,-3.07951 4.39039,-4.59763 5.21289,-4.49023 z"
       style="display:inline;fill:#c70d14;stroke-width:1.47016"
       id="path2338" />
    <path
       id="path2336"
       d="m 109.86226,185.68286 c 5.39443,-1.20405 7.9741,-3.58394 7.9741,-7.35655 0,-2.91868 -3.60096,-4.51345 -5.71239,-2.52986 -1.42149,1.33542 -0.8025,4.59996 0.87219,4.59996 0.68013,0 0.74195,-1.21979 0.0946,-1.86711 -0.59981,-0.59981 0.0965,-1.37424 1.06448,-1.18397 0.96503,0.18968 1.50227,1.21331 1.22229,2.32886 -1.10503,4.40276 -19.26113,4.40276 -20.366153,0 -0.314884,-1.2546 0.31642,-2.19514 1.473407,-2.19514 0.956667,0 1.039773,0.32599 0.520612,2.04215 -0.356866,1.17968 0.730307,1.18716 1.554331,0.0107 2.242843,-3.20212 -2.33577,-6.40918 -5.01895,-3.51549 -1.646768,1.77596 -1.150064,4.61485 1.257839,7.18911 2.299031,2.45786 9.698694,3.67481 15.063604,2.47734 z"
       style="display:inline;fill:#c70d14;stroke-width:0.388981" />
    <path
       id="path2334"
       d="m 112.17872,206.21648 c 2.73497,-1.04951 1.82034,-5.99728 -1.10473,-5.97611 -2.08661,0.0151 -2.27229,1.27951 -0.24737,1.6845 1.3205,0.26409 1.46564,0.68623 0.55057,1.6013 -0.71584,0.71585 -2.01544,0.47901 -2.80357,-0.51092 -2.62973,-3.3031 7.36689,-18.00294 11.50668,-16.92036 1.28474,0.33597 1.93526,1.96056 1.1105,2.77332 -0.69699,0.68685 -1.37329,0.25511 -1.93234,-1.23358 -0.10476,-0.27895 -0.39764,-0.20686 -0.82996,0.20428 -1.23047,1.17015 1.14289,3.78123 3.01084,3.3124 4.71845,-1.18426 2.85075,-7.25408 -2.2321,-7.25408 -8.93682,0 -17.77801,17.65272 -10.93204,21.82738 1.21237,0.7393 2.75287,0.93342 3.90352,0.49187 z"
       style="display:inline;fill:#c70d14;stroke-width:0.388981" />
    <path
       id="path2332"
       d="m 101.81737,205.66832 c 4.76332,-2.9041 2.7934,-12.18715 -3.936926,-18.55241 -4.512342,-4.26759 -10.078249,-4.56527 -11.57852,-0.61926 -1.165977,3.06675 2.236949,5.8272 4.664931,3.78419 1.413116,-1.18906 1.659189,-2.88278 0.418827,-2.88278 -0.510755,0 -0.777961,0.25932 -0.777961,0.755 0,0.99291 -0.669603,1.37509 -1.378469,0.78678 -2.562538,-2.12671 1.215603,-3.86836 4.0933,-1.88693 6.575262,4.52738 11.418708,17.1941 6.352489,16.6132 -1.529448,-0.17538 -1.5484,-1.62891 -0.02353,-1.80436 1.692809,-0.19478 1.482169,-1.62733 -0.239277,-1.62733 -2.684199,0 -3.966026,1.97621 -2.77533,4.27877 1.0731,2.07514 2.975632,2.49937 5.180456,1.15513 z"
       style="display:inline;fill:#c70d14;stroke-width:0.388981" />
    <path
       id="path2302"
       d="m 101.49918,185.96257 c -6.921555,-1.15733 -11.17671,-6.47533 -7.958363,-9.94617 2.68318,-2.89369 7.261793,0.31338 5.01895,3.5155 -0.824024,1.17646 -1.911197,1.16898 -1.554331,-0.0107 0.519161,-1.71616 0.436055,-2.04215 -0.520612,-2.04215 -1.156987,0 -1.788291,0.94054 -1.473407,2.19514 1.105023,4.40276 19.261123,4.40276 20.366153,0 0.27998,-1.11556 -0.25726,-2.13918 -1.22229,-2.32886 -0.96801,-0.19027 -1.66429,0.58416 -1.06448,1.18397 0.64731,0.64731 0.58549,1.8671 -0.0946,1.8671 -1.67469,0 -2.29368,-3.26454 -0.87219,-4.59996 2.11143,-1.98358 5.71239,-0.38881 5.71239,2.52986 0,5.46145 -7.73138,9.07522 -16.33718,7.63627 z"
       style="fill:#0a0404;stroke-width:0.388981" />
    <path
       id="path2300"
       d="m 108.2752,205.72461 c -6.84597,-4.17466 1.99522,-21.82738 10.93204,-21.82738 5.08285,0 6.95055,6.06982 2.2321,7.25408 -1.70619,0.42822 -4.16152,-2.02809 -3.19336,-3.19464 0.69538,-0.83789 1.0254,-0.6871 1.50457,0.68743 0.43437,1.24604 0.43437,1.24604 1.27794,0.40247 0.98208,-0.98208 0.46837,-2.58124 -0.94819,-2.95168 -4.13979,-1.08258 -14.13641,13.61726 -11.50668,16.92036 0.78813,0.98993 2.08773,1.22677 2.80357,0.51092 0.99381,-0.99381 0.77173,-1.73583 -0.51952,-1.73583 -1.29352,0 -1.95054,-0.69267 -1.14249,-1.20447 1.50631,-0.95409 4.23138,0.4785 4.23138,2.22447 0,3.15925 -2.85978,4.62877 -5.67136,2.91427 z"
       style="fill:#0a0404;stroke-width:0.388981" />
    <path
       id="path2298"
       d="m 97.901099,206.03797 c -1.857445,-1.08187 -2.309533,-3.82785 -0.822741,-4.99736 1.384475,-1.08903 3.642862,-1.10653 3.642862,-0.0282 0,0.609 -0.25933,0.77796 -1.194,0.77796 -1.661557,0 -1.528888,1.68351 0.147821,1.87577 5.066219,0.5809 0.222773,-12.08582 -6.352489,-16.6132 -2.849076,-1.96172 -6.423601,-0.40737 -4.192957,1.82328 0.771885,0.77188 1.478126,0.53027 1.478126,-0.50568 0,-0.71313 0.207455,-0.97245 0.777961,-0.97245 1.240362,0 0.994289,1.69372 -0.418827,2.88278 -1.723343,1.4501 -5.026901,-0.0188 -5.026901,-2.23509 0,-8.98874 13.391734,-3.34901 17.625646,7.42278 2.47338,6.29269 -1.20935,13.16432 -5.664501,10.56944 z"
       style="fill:#0a0404;stroke-width:0.388981" />
    <path
       sodipodi:nodetypes="ssssssssssssssssssssssssssssssssssss"
       id="path1089"
       d="m 104.50755,222.20709 c -1.46255,-2.79519 -3.52155,-4.08575 -11.444343,-7.17324 -13.468833,-5.24876 -17.149099,-9.76298 -20.162014,-24.73076 -2.000048,-9.93597 -3.138602,-12.89476 -5.785557,-15.03505 -0.810165,-0.65508 -0.810165,-0.65508 0.265335,-1.06399 6.965157,-2.64815 14.456242,-8.49134 18.214521,-14.20769 1.58545,-2.41147 1.58545,-2.41147 5.924458,-0.87661 2.386455,0.84417 4.580671,1.60224 4.875012,1.68813 4.413408,1.28785 0.452591,1.79695 -0.284897,3.70378 -0.400646,1.0359 1.89119,1.76087 -2.85425,0.24007 -4.279752,-1.37156 -4.124361,-1.42818 -6.63159,1.8323 -2.569415,3.34134 -5.552935,5.82056 -9.436334,7.8413 -1.497575,0.77927 -2.758378,1.44141 -2.801784,1.47142 -0.04341,0.03 0.371301,0.96429 0.921569,2.07618 0.686228,1.38662 1.290404,3.82581 1.923482,7.76552 2.800135,17.42555 4.629806,19.96294 18.04433,25.02388 5.160372,1.94687 7.109732,3.04871 8.776722,4.96087 1.19161,1.36685 1.19161,1.36685 2.06757,0.13668 1.16759,-1.63973 3.44019,-2.91954 8.7863,-4.94798 13.09682,-4.96924 15.34011,-7.83852 17.72712,-22.67383 1.27825,-7.94436 1.65657,-9.43851 2.80371,-11.07315 0.42152,-0.60065 0.70355,-1.13583 0.62673,-1.18929 -0.0768,-0.0535 -1.27745,-0.65371 -2.66806,-1.33388 -4.33828,-2.12191 -10.05537,-7.22693 -11.43712,-10.21267 -0.44209,-0.95528 -0.85893,-0.94918 -3.84264,0.0563 -2.27552,0.76679 -7.48066,1.71262 -8.67676,1.90778 -5.27017,0.8599 -7.5088,-3.59097 0.90942,-4.8775 2.56504,-0.39201 7.12373,-1.72985 10.02753,-2.8574 2.81822,-1.09432 2.81822,-1.09432 4.50164,1.46616 3.70653,5.63763 11.5761,11.81032 17.8254,13.98178 1.33337,0.46331 1.33337,0.46331 0.51469,1.22603 -2.80376,2.6121 -3.72859,5.02845 -5.72995,14.97091 -3.10541,15.42729 -6.60695,19.50945 -21.7563,25.36391 -5.93805,2.29476 -8.63689,4.1304 -10.18743,6.92907 -0.40762,0.73573 -0.45789,0.71686 -1.03651,-0.38898 z"
       style="fill:#0a0404;stroke-width:0.388981" />
    <path
       sodipodi:nodetypes="sssssssssssscscsssssssscssscssssss"
       id="path1663"
       d="m 94.293946,169.99118 c 1.13247,-2.86971 2.376955,-8.02493 2.465185,-8.6557 l 0.108695,-0.77708 c 0.07439,-0.53184 0.38753,-4.66859 -0.202413,-6.32172 -1.276674,-3.57747 -3.884788,-5.51028 -8.480399,-6.28461 -2.640852,-0.44497 -2.640852,-0.44497 2.619255,-2.92524 2.893055,-1.36415 5.207831,-2.53254 5.143949,-2.59643 -0.09476,-0.0948 -5.527895,0.92012 -9.843615,1.93735 -0.701087,0.16525 0.178803,-0.61153 2.746497,-3.33391 1.877761,-1.99088 4.194611,-4.80108 5.148555,-6.24489 1.913061,-2.89545 3.911036,-4.78168 6.545135,-6.17906 1.59284,-0.845 1.76922,-1.04393 1.77112,-2.4756 0.002,-1.67389 -0.0923,-2.9822 -0.0129,-2.92172 0.3861,-0.007 2.32142,-0.001 3.50047,-0.01 0.55375,-0.004 0.77371,-0.006 0.77371,-0.006 0,0 0.003,-0.003 0.52749,-0.009 0.31817,-0.003 0.38123,0.001 0.48437,-0.004 0.0987,-0.005 0.27542,-0.0247 0.43848,0.0177 0,0 0.24648,0.72027 0.33116,2.04007 0.0709,1.10467 0.37166,1.86573 0.64963,1.868 4.49418,0.0367 8.82968,5.38563 9.139,11.27518 0.19326,3.67986 0.20151,3.70492 2.17813,6.61353 2.92149,4.29901 6.34097,9.38609 6.06843,9.48969 -0.89872,0.34164 -4.35082,0.84663 -4.84396,-0.39879 -4.72056,-9.35352 -11.05868,-5.58923 -12.08244,3.42145 -0.12967,1.14126 -0.32962,2.45292 -0.40698,2.92166 -0.10437,0.63235 -0.0915,0.5109 -0.11401,0.98748 -0.019,0.40188 -0.0383,0.54244 -0.0383,0.54244 0.0175,0.3235 0.0908,4.12713 -0.007,4.51328 -0.07,0.27778 0.0648,1.20948 -0.42437,1.34917 -0.63817,0.18226 -0.39217,-0.0276 -3.67303,0.25582 -3.18369,0.27503 -4.50877,0.47303 -6.726936,1.41694 -3.211723,1.36671 -4.177795,1.49271 -3.783458,0.49346 z"
       style="display:inline;fill:#636363;stroke-width:0.388981" />
  </g>
</svg>
