<?xml version="1.0" encoding="UTF-8" standalone="no"?>
<svg
   xmlns:dc="http://purl.org/dc/elements/1.1/"
   xmlns:cc="http://creativecommons.org/ns#"
   xmlns:rdf="http://www.w3.org/1999/02/22-rdf-syntax-ns#"
   xmlns:svg="http://www.w3.org/2000/svg"
   xmlns="http://www.w3.org/2000/svg"
   xmlns:sodipodi="http://sodipodi.sourceforge.net/DTD/sodipodi-0.dtd"
   xmlns:inkscape="http://www.inkscape.org/namespaces/inkscape"
   width="300"
   height="300"
   viewBox="0 0 79.374999 79.374999"
   version="1.1"
   id="svg8"
   inkscape:version="1.0 (4035a4fb49, 2020-05-01)"
   sodipodi:docname="telehpone.svg">
  <defs
     id="defs2" />
  <sodipodi:namedview
     id="base"
     pagecolor="#ffffff"
     bordercolor="#666666"
     borderopacity="1.0"
     inkscape:pageopacity="0.0"
     inkscape:pageshadow="2"
     inkscape:zoom="1"
     inkscape:cx="-44.372611"
     inkscape:cy="166.72725"
     inkscape:document-units="mm"
     inkscape:current-layer="layer1"
     inkscape:document-rotation="0"
     showgrid="false"
     units="px"
     inkscape:window-width="1920"
     inkscape:window-height="1017"
     inkscape:window-x="1912"
     inkscape:window-y="-8"
     inkscape:window-maximized="1" />
  <metadata
     id="metadata5">
    <rdf:RDF>
      <cc:Work
         rdf:about="">
        <dc:format>image/svg+xml</dc:format>
        <dc:type
           rdf:resource="http://purl.org/dc/dcmitype/StillImage" />
        <dc:title></dc:title>
      </cc:Work>
    </rdf:RDF>
  </metadata>
  <g
     inkscape:label="Ebene 1"
     inkscape:groupmode="layer"
     id="layer1">
    <path
       inkscape:original-d="m 56.12037,74.644984 c -2.295459,-0.216922 -4.281587,-0.769856 -8.976852,-2.499133 -3.44846,-1.270079 -4.687473,-1.753734 -6.133723,-2.39433 -4.046293,-1.792252 -8.490513,-4.737715 -13.006351,-8.620126 -3.112613,-2.676011 -6.974979,-6.535172 -9.684028,-9.675987 -2.655643,-3.0789 -5.151091,-6.525664 -6.778341,-9.362384 C 10.418429,40.135961 9.2365836,37.59971 8.4105886,35.374977 6.2193546,29.473111 5.7907002,28.231306 5.3239464,26.433049 3.9341648,21.078655 4.8087122,16.107628 8.0634669,10.861305 9.2180946,9.0001664 10.582305,7.4164184 11.645981,6.7022688 c 0.780773,-0.5242087 1.982945,-0.9658361 3.869817,-1.4216054 2.059237,-0.4974042 3.811927,-0.702005 4.600708,-0.5370655 0.788817,0.1649467 1.419578,0.9447693 2.693792,3.3303826 0.834497,1.5623639 3.532359,6.4365255 4.222126,7.6280085 0.358,0.618403 1.057127,1.72493 1.553613,2.458949 1.534694,2.268934 1.815811,3.130331 1.365813,4.185125 -0.438889,1.028756 -2.006207,2.635097 -4.343581,4.45172 -1.301727,1.011711 -2.548551,2.098118 -3.250206,2.832033 -1.274621,1.33322 -1.4285,1.967346 -0.840248,3.462623 0.256438,0.65184 0.685066,1.417523 2.618036,4.676735 4.369074,7.366767 10.126234,13.135947 17.409779,17.446126 0.569773,0.337173 1.662878,0.984276 2.429123,1.438007 1.663472,0.985019 1.781672,1.045771 2.607736,1.340318 0.83819,0.298869 1.354352,0.313971 1.861793,0.05447 0.964072,-0.493009 2.268255,-1.828576 4.199724,-4.300785 1.824278,-2.33501 3.263035,-3.745142 4.342256,-4.255868 0.365891,-0.173152 0.550354,-0.215728 0.934839,-0.215773 0.841259,-7.1e-5 1.587448,0.346852 3.307572,1.537909 0.550126,0.380921 1.418559,0.941952 1.929852,1.246735 1.017428,0.606493 6.434094,3.615904 8.143866,4.5246 1.333691,0.708819 2.556237,1.5106 2.942478,1.929761 0.384108,0.416846 0.486166,0.87332 0.427045,1.910037 -0.100185,1.756909 -0.854989,4.973376 -1.521299,6.482804 -0.554223,1.255514 -1.749343,2.488604 -3.705789,3.823523 -3.022575,2.06236 -6.092412,3.335348 -9.180658,3.807001 -0.897501,0.137071 -3.196985,0.196414 -4.143798,0.106937 z"
       id="path844"
       d="m 56.12037,74.644984 c -2.295459,-0.216922 -4.281587,-0.769856 -8.976852,-2.499133 -3.44846,-1.270079 -4.687473,-1.753734 -6.133723,-2.39433 -4.046293,-1.792252 -8.490513,-4.737715 -13.006351,-8.620126 -3.112613,-2.676011 -6.974979,-6.535172 -9.684028,-9.675987 -2.655643,-3.0789 -5.151091,-6.525664 -6.778341,-9.362384 C 10.418429,40.135961 9.2365836,37.59971 8.4105886,35.374977 6.2193546,29.473111 5.7907002,28.231306 5.3239464,26.433049 3.9341648,21.078655 4.8087122,16.107628 8.0634669,10.861305 9.2180946,9.0001666 10.582305,7.4164186 11.645981,6.702269 c 0.780773,-0.5242087 1.982945,-0.9658361 3.869817,-1.4216054 2.059237,-0.4974042 3.811927,-0.702005 4.600708,-0.5370655 0.788817,0.1649467 1.419578,0.9447693 2.693792,3.3303826 0.834497,1.5623639 3.532359,6.4365253 4.222126,7.6280083 0.358,0.618403 1.057127,1.72493 1.553613,2.458949 1.534694,2.268934 1.815811,3.130331 1.365813,4.185125 -0.438889,1.028756 -2.006207,2.635097 -4.343581,4.45172 -1.301727,1.011711 -2.548551,2.098118 -3.250206,2.832033 -1.274621,1.33322 -1.4285,1.967346 -0.840248,3.462623 0.256438,0.65184 0.685066,1.417523 2.618036,4.676735 4.369074,7.366767 10.126234,13.135947 17.409779,17.446126 0.569773,0.337173 1.662878,0.984276 2.429123,1.438007 1.663472,0.985019 1.781672,1.045771 2.607736,1.340318 0.83819,0.298869 1.354352,0.313971 1.861793,0.05447 0.964072,-0.493009 2.268255,-1.828576 4.199724,-4.300785 1.824278,-2.33501 3.263035,-3.745142 4.342256,-4.255868 0.365891,-0.173152 0.550354,-0.215728 0.934839,-0.215773 0.841259,-7.1e-5 1.587448,0.346852 3.307572,1.537909 0.550126,0.380921 1.418559,0.941952 1.929852,1.246735 1.017428,0.606493 6.434094,3.615904 8.143866,4.5246 1.333691,0.708819 2.556237,1.5106 2.942478,1.929761 0.384108,0.416846 0.486166,0.87332 0.427045,1.910037 -0.100185,1.756909 -0.854989,4.973376 -1.521299,6.482804 -0.554223,1.255514 -1.749343,2.488604 -3.705789,3.823523 -3.022575,2.06236 -6.092412,3.335348 -9.180658,3.807001 -0.897501,0.137071 -3.196985,0.196414 -4.143798,0.106937 z"
       style="fill:#000000;stroke-width:0.0714568" />
  </g>
</svg>
